<?xml version="1.0" encoding="UTF-8" standalone="no"?>
<!DOCTYPE svg PUBLIC "-//W3C//DTD SVG 1.1//EN" "http://www.w3.org/Graphics/SVG/1.1/DTD/svg11.dtd">
<svg xmlns="http://www.w3.org/2000/svg" viewBox="0 0 100 100">
  <defs>
    <clipPath id="orbClipDragon" clipPathUnits="userSpaceOnUse"><circle cx="50" cy="50" r="50"/></clipPath>
    <linearGradient id="backgroundDragon" x1="0.146" y1="0.854" x2="0.854" y2="0.146">
      <stop offset="0.000" stop-color="#191916"/>
      <stop offset="1.000" stop-color="#E1BD28"/>
    </linearGradient>




    <radialGradient id="bodyDragon" cx="64.0" cy="30.0" r="64.0" gradientUnits="userSpaceOnUse">
      <stop offset="0.0" stop-color="#8A824F"/>
      <stop offset="0.35" stop-color="#BBAE5F"/>
      <stop offset="0.7" stop-color="#514515"/>
      <stop offset="1.0" stop-color="#714926"/>
    </radialGradient>
    <linearGradient id="sheenDragon" x1="0" y1="1" x2="1" y2="0">
      <stop offset="0" stop-color="#F4F6E8" stop-opacity="0"/>
      <stop offset="0.06" stop-color="#FBFCF7" stop-opacity="0.04"/>
      <stop offset="0.14" stop-color="#FFFFFF" stop-opacity="0.38"/>
      <stop offset="0.86" stop-color="#FFFFFF" stop-opacity="0.38"/>
      <stop offset="0.94" stop-color="#FBFCF7" stop-opacity="0.34"/>
      <stop offset="1" stop-color="#F4F6E8" stop-opacity="0"/>
    </linearGradient>
    <radialGradient id="sheenMaskGradientDragon" gradientUnits="userSpaceOnUse" cx="50" cy="50" r="50">
      <stop offset="0.72" stop-color="#000000" stop-opacity="0"/>
      <stop offset="0.78" stop-color="#FFFFFF" stop-opacity="0.64"/>
      <stop offset="0.85" stop-color="#FFFFFF" stop-opacity="1"/>
      <stop offset="0.94" stop-color="#FFFFFF" stop-opacity="0.72"/>
      <stop offset="0.98" stop-color="#FFFFFF" stop-opacity="0.16"/>
      <stop offset="1" stop-color="#000000" stop-opacity="0"/>
    </radialGradient>
    <mask id="sheenMaskDragon" maskUnits="userSpaceOnUse" x="0" y="0" width="100" height="100">
      <path d="M 4.6 31.5 A 49 49 0 0 1 31.5 4.6 A 7.5 7.5 0 0 1 37.3 18.5 A 34 34 0 0 0 18.5 36.3 A 7.5 7.5 0 0 1 4.6 31.5 Z" fill="url(#sheenMaskGradientDragon)"/>
    </mask>
  </defs>
  <circle cx="50" cy="50" r="50" fill="url(#backgroundDragon)"/>
  <circle cx="50" cy="50" r="50" fill="url(#bodyDragon)" opacity="0.68"/>


  <path d="M287 344C286 344 285 344 285 344C284 343 284 342 284 342L320 215L335 157C336 155 334 153 332 153C303 163 276 182 256 206C225 246 212 292 219 333C232 396 288 421 347 421C405 421 471 396 520 350C521 349 522 349 523 350C523 351 523 352 523 353C458 426 368 471 282 471C218 471 165 446 131 402C95 355 85 292 103 225C138 93 273 -18 411 -18C488 -18 552 18 582 82C582 84 582 85 581 86ZM390 142 374 201C373 204 376 206 378 204L467 126C470 124 468 120 465 121L392 140C391 140 390 141 390 142Z" transform="translate(50.0 50.0) scale(0.135642) translate(-346.5 226.5) scale(1 -1)" fill="#16150E"/>
  <g clip-path="url(#orbClipDragon)">
    <path d="M 4.6 31.5 A 49 49 0 0 1 31.5 4.6 A 7.5 7.5 0 0 1 37.3 18.5 A 34 34 0 0 0 18.5 36.3 A 7.5 7.5 0 0 1 4.6 31.5 Z" fill="url(#sheenDragon)" mask="url(#sheenMaskDragon)" opacity="0.84"/>
    <path d="M 8.1 28.6 A 47 47 0 0 1 28.6 8.1 A 4.2 4.2 0 0 1 32.7 16.2 A 38 38 0 0 0 16.2 32.7 A 4.2 4.2 0 0 1 8.1 28.6 Z" fill="#FFFFFF" opacity="0.84"/>
  </g>
</svg>
